<svg width="100" height="100" viewBox="0 0 100 100" fill="none" xmlns="http://www.w3.org/2000/svg">
<path d="M59.9514 40.5799C59.9548 40.6027 60.055 40.8013 60.079 40.7903C62.401 39.2465 65.2756 38.2672 68.0603 37.93C91.3068 35.1145 100.608 66.021 82.3924 78.0901C75.9422 82.3641 66.4649 82.9006 59.9514 78.4779V81.4354H48.2129V41.5094L59.9514 23.4688V40.5799ZM68.93 49.0966C61.0352 49.694 56.7323 58.4456 60.6214 65.0991C65.1291 72.8097 77.4896 71.5887 79.8716 62.8455C81.838 55.6293 76.7117 48.5085 68.93 49.0975V49.0966Z" fill="#0066FE"/>
<path d="M60.724 19L40.3147 51.0387V81.5538H28.4093V50.9541L8.09865 19.3665L8 19H21.7337L34.3203 39.0612L34.5304 38.9326L46.9902 19H60.724Z" fill="#0066FE"/>
</svg>
